<?xml version="1.0" standalone="no"?>
<!DOCTYPE svg PUBLIC "-//W3C//DTD SVG 20010904//EN"
 "http://www.w3.org/TR/2001/REC-SVG-20010904/DTD/svg10.dtd">
<svg version="1.0" xmlns="http://www.w3.org/2000/svg"
 width="512.000000pt" height="512.000000pt" viewBox="0 0 512.000000 512.000000"
 preserveAspectRatio="xMidYMid meet">
<metadata>
Created by potrace 1.16, written by Peter Selinger 2001-2019
</metadata>
<g transform="translate(0.000000,512.000000) scale(0.100000,-0.100000)"
fill="currentColor" stroke="currentColor">
<path d="M1461 4941 c-23 -23 -25 -35 -46 -223 -31 -284 -17 -414 65 -584 39
-80 65 -118 125 -182 l75 -80 0 -96 0 -96 -58 0 c-102 0 -198 -65 -243 -164
-25 -56 -25 -176 0 -232 48 -105 140 -164 257 -164 l72 0 18 -52 c51 -157 186
-340 313 -424 l41 -27 0 -71 0 -71 -332 -44 c-391 -51 -450 -64 -583 -130
-167 -83 -295 -207 -384 -371 -47 -88 -221 -597 -221 -647 0 -51 15 -70 68
-87 l48 -16 -31 -223 c-22 -153 -41 -246 -60 -299 -24 -69 -27 -88 -23 -176 3
-87 7 -107 37 -166 42 -85 112 -155 198 -198 60 -29 78 -33 171 -36 107 -4
213 13 277 45 23 12 30 13 33 3 3 -7 13 -21 23 -31 18 -18 60 -19 1259 -19
1199 0 1241 1 1259 19 10 10 20 24 22 30 3 9 17 6 49 -8 70 -30 160 -44 268
-39 87 3 106 7 166 37 85 42 155 112 197 197 30 59 34 79 37 166 4 88 1 107
-23 176 -19 53 -38 146 -60 300 l-31 222 38 11 c54 14 78 41 78 87 0 54 -172
560 -221 652 -89 164 -217 288 -384 371 -133 66 -192 79 -582 130 l-333 44 0
71 0 71 42 28 c66 44 179 166 223 241 45 76 190 234 215 234 36 0 110 33 148
66 60 51 92 123 92 204 0 37 -7 88 -16 113 -15 43 -15 55 0 135 22 121 21 313
-3 427 -94 448 -428 782 -876 876 -83 17 -142 19 -737 19 -629 0 -649 -1 -667
-19z m1369 -164 c360 -87 621 -330 727 -674 24 -80 27 -103 27 -255 1 -91 -1
-168 -4 -170 -3 -2 -35 -2 -72 0 l-68 4 0 139 c0 180 6 174 -163 182 -132 7
-217 28 -287 70 -55 33 -136 114 -171 171 -42 66 -55 76 -101 76 -31 0 -47 -9
-98 -54 -116 -104 -264 -185 -410 -225 -76 -22 -245 -41 -357 -41 l-61 0 -60
65 c-105 115 -162 259 -162 413 0 78 15 246 26 300 l5 24 582 -5 c483 -4 593
-7 647 -20z m-58 -751 c120 -118 280 -186 435 -186 l73 0 0 -222 c-1 -275 -10
-381 -45 -483 -51 -154 -171 -304 -310 -387 -173 -105 -396 -128 -590 -63
-210 70 -380 241 -450 450 -35 102 -44 208 -45 483 l0 222 119 0 c249 0 473
71 669 211 37 26 67 48 68 48 1 1 35 -32 76 -73z m-1092 -626 c0 -131 2 -127
-62 -110 -112 32 -116 187 -5 219 69 20 67 24 67 -109z m1822 110 c20 -6 48
-24 62 -41 53 -62 20 -156 -62 -179 -64 -17 -62 -21 -62 110 0 131 -2 127 62
110z m-1182 -1002 c57 -19 86 -22 240 -22 154 0 183 3 240 22 36 12 69 22 74
22 13 0 0 -258 -14 -297 -7 -18 -13 -33 -14 -33 -1 0 -19 9 -41 20 -52 26
-145 27 -202 0 -42 -19 -44 -19 -85 0 -58 27 -151 26 -203 0 -22 -11 -40 -20
-41 -20 -1 0 -7 15 -14 33 -14 39 -27 297 -14 297 5 0 38 -10 74 -22z m-240
-235 c0 -47 26 -128 60 -190 l32 -58 -117 -285 c-64 -157 -122 -290 -128 -296
-12 -11 -450 -224 -461 -224 -3 0 -6 111 -6 247 0 240 -1 247 -22 270 -27 29
-86 31 -119 4 l-24 -19 -3 -271 c-2 -149 -6 -271 -11 -271 -9 0 -513 151 -523
156 -9 6 133 428 166 493 91 182 273 329 466 376 61 15 603 92 663 94 23 1 27
-3 27 -26z m1290 -14 c168 -22 332 -47 365 -55 107 -27 219 -90 305 -171 120
-113 155 -177 249 -455 44 -131 77 -239 73 -242 -10 -5 -514 -156 -523 -156
-5 0 -9 122 -11 271 l-3 271 -24 19 c-32 26 -89 25 -118 -3 -23 -21 -23 -23
-23 -270 0 -136 -3 -248 -7 -248 -11 1 -455 218 -464 227 -4 5 -60 136 -124
293 l-116 285 31 58 c34 62 60 144 60 190 0 15 6 27 13 27 6 0 149 -18 317
-41z m-909 -206 c11 -13 14 -97 14 -447 0 -395 -1 -434 -18 -459 -25 -38 -58
-52 -182 -77 -60 -12 -121 -24 -134 -27 -13 -3 -212 -162 -442 -354 -229 -191
-438 -359 -463 -374 -113 -66 -263 -85 -353 -45 -63 28 -100 64 -129 125 -49
103 -20 237 66 306 19 15 305 159 635 319 330 160 604 295 608 299 5 5 74 168
154 362 79 195 152 362 160 372 20 22 66 22 84 0z m282 0 c8 -10 81 -177 160
-372 80 -194 149 -357 154 -362 4 -4 278 -139 608 -299 330 -160 616 -304 635
-319 86 -69 115 -203 66 -306 -29 -61 -66 -97 -129 -125 -86 -38 -221 -24
-337 35 -25 13 -237 182 -471 377 -234 196 -437 358 -450 361 -13 3 -73 15
-134 27 -124 25 -157 39 -182 77 -17 25 -18 64 -18 459 0 468 0 464 55 464 15
0 34 -8 43 -17z m-1802 -953 c41 -12 96 -28 123 -37 l50 -16 -80 -40 c-43 -22
-112 -55 -153 -74 l-73 -34 5 33 c4 18 11 70 18 116 8 59 15 82 24 78 7 -2 46
-14 86 -26z m3348 -52 c7 -46 14 -98 18 -116 l5 -33 -73 34 c-41 19 -110 52
-154 74 l-79 40 89 27 c50 15 108 33 130 41 22 7 43 14 46 14 4 1 12 -36 18
-81z m-1696 -72 c44 -34 74 -44 209 -71 l117 -24 373 -311 c205 -171 375 -315
376 -320 2 -7 -401 -10 -1108 -10 -707 0 -1110 3 -1108 10 2 5 171 149 376
320 l373 311 120 24 c126 26 195 50 218 78 17 21 16 22 54 -7z"/>
<path d="M2100 3660 c-13 -13 -20 -33 -20 -60 0 -53 27 -80 80 -80 53 0 80 27
80 80 0 27 -7 47 -20 60 -13 13 -33 20 -60 20 -27 0 -47 -7 -60 -20z"/>
<path d="M2900 3660 c-13 -13 -20 -33 -20 -60 0 -27 7 -47 20 -60 13 -13 33
-20 60 -20 27 0 47 7 60 20 13 13 20 33 20 60 0 27 -7 47 -20 60 -13 13 -33
20 -60 20 -27 0 -47 -7 -60 -20z"/>
<path d="M2500 3500 c-18 -18 -20 -33 -20 -140 0 -140 10 -160 80 -160 70 0
80 20 80 160 0 140 -10 160 -80 160 -27 0 -47 -7 -60 -20z"/>
<path d="M2390 3042 c-46 -47 -37 -98 29 -146 93 -69 269 -49 322 38 27 44 24
73 -11 108 -26 26 -36 30 -66 25 -19 -3 -46 -15 -61 -26 -14 -12 -33 -21 -43
-21 -10 0 -29 9 -43 21 -15 11 -42 23 -61 26 -30 5 -40 1 -66 -25z"/>
</g>
</svg>
